<svg width="41" height="40" viewBox="0 0 41 40" fill="none" xmlns="http://www.w3.org/2000/svg">
<path d="M24.8331 10.8333C26.0617 11.073 27.2813 11.6149 28.1664 12.5C29.0515 13.3851 29.5934 14.6047 29.8331 15.8333M25.6664 5C28.219 5.28357 30.5159 6.51845 32.3331 8.33333C34.1502 10.1482 35.3796 12.4478 35.6664 15M35.6655 27.4611V31.9774C35.6725 33.7038 34.1202 35.1455 32.3772 34.9882C17.3332 35 5.6665 23.225 5.67828 8.28198C5.5213 6.54825 6.9558 5.00177 8.68002 5.00015H13.2053C13.9373 4.99296 14.647 5.25167 15.202 5.72807C16.7801 7.08249 17.7951 11.6796 17.4045 13.5071C17.0996 14.9339 15.6613 15.9322 14.6835 16.9081C16.8308 20.677 19.9576 23.7976 23.734 25.9406C24.7118 24.9647 25.712 23.5293 27.1416 23.225C28.9756 22.8346 33.6023 23.8511 34.9513 25.4401C35.4297 26.0035 35.6838 26.7228 35.6655 27.4611Z" stroke="#363E45" stroke-width="2.5" stroke-linecap="round" stroke-linejoin="round"/>
</svg>
